<?xml version="1.0" standalone="no"?>
<!DOCTYPE svg PUBLIC "-//W3C//DTD SVG 20010904//EN"
 "http://www.w3.org/TR/2001/REC-SVG-20010904/DTD/svg10.dtd">
<svg version="1.0" xmlns="http://www.w3.org/2000/svg"
 width="2480.000000pt" height="2480.000000pt" viewBox="0 0 2480.000000 2480.000000"
 preserveAspectRatio="xMidYMid meet">
<metadata>
Created by potrace 1.11, written by Peter Selinger 2001-2013
</metadata>
<g transform="translate(0.000000,2480.000000) scale(0.100000,-0.100000)"
fill="#000000" stroke="none">
<path d="M12448 24718 c-13 -24 -120 -223 -238 -442 -239 -443 -249 -457 -405
-561 -155 -103 -266 -149 -615 -255 -918 -280 -1665 -575 -2440 -966 -2201
-1108 -3895 -2718 -5025 -4774 -736 -1341 -1220 -2887 -1374 -4390 -34 -329
-40 -633 -46 -2385 -3 -929 -10 -2565 -15 -3635 -26 -5283 -32 -7252 -24
-7260 11 -11 2747 -13 13035 -11 l7177 1 6 153 c3 83 10 1446 16 3027 6 1581
15 3856 21 5055 6 1199 11 2756 12 3460 2 1269 2 1282 -21 1505 -76 744 -207
1424 -408 2120 -454 1571 -1223 3014 -2249 4225 -280 330 -704 772 -995 1036
-1308 1188 -2882 2089 -4725 2704 -187 63 -419 139 -517 170 -280 89 -547 237
-636 352 -15 20 -131 232 -257 471 -127 240 -235 437 -241 439 -7 2 -23 -15
-36 -39z m133 -1958 c121 -80 372 -204 519 -257 63 -23 216 -73 340 -112 800
-249 1468 -518 2160 -867 2284 -1153 3957 -2881 4947 -5109 499 -1122 810
-2367 882 -3530 6 -93 6 -908 0 -2135 -19 -4223 -39 -8793 -39 -9187 l0 -413
-226 0 -227 0 7 123 c9 152 30 329 57 472 18 101 19 117 6 201 -13 86 -12 92
7 130 22 42 26 110 17 359 -2 61 1 171 8 245 21 251 11 623 -25 910 -30 238
-80 443 -209 855 -61 193 -69 231 -105 476 l-39 266 -241 669 -241 669 -147
245 c-177 297 -174 291 -212 432 -42 152 -62 194 -170 344 -118 163 -166 262
-181 369 -18 130 4 300 66 516 19 65 61 264 94 441 l60 323 201 495 c110 272
205 511 210 530 22 81 31 282 20 434 -23 317 -86 633 -235 1176 -137 500 -149
577 -175 1115 -20 404 -49 605 -117 799 -39 111 -41 124 -24 211 8 44 8 81 0
140 -6 44 -12 82 -15 86 -2 4 -18 110 -35 235 l-31 229 -42 65 c-56 87 -141
186 -298 353 -71 75 -224 246 -340 380 -860 990 -1236 1389 -1868 1978 -232
216 -338 306 -449 380 -222 150 -409 216 -657 235 l-89 6 -80 -47 c-139 -83
-369 -188 -730 -333 -559 -224 -563 -226 -918 -461 -123 -81 -315 -201 -428
-266 -390 -226 -689 -416 -904 -574 -49 -37 -96 -70 -102 -75 -10 -6 -13 70
-13 368 l0 375 48 5 c468 57 869 246 1186 562 307 305 499 684 563 1110 l16
112 172 4 c172 3 172 3 209 32 90 69 85 198 -11 257 -35 22 -50 24 -204 27
l-167 4 -6 61 c-49 446 -265 883 -593 1198 -314 300 -716 491 -1130 535 l-62
6 -3 334 -3 333 -34 35 c-62 64 -140 72 -208 20 -61 -46 -63 -59 -63 -407 l0
-314 -74 -6 c-107 -9 -288 -50 -413 -92 -548 -188 -983 -606 -1198 -1155 -44
-112 -99 -330 -116 -454 l-11 -89 -181 5 c-201 6 -237 0 -285 -45 -79 -75 -57
-203 42 -248 35 -16 67 -19 233 -19 l191 0 7 -62 c38 -341 176 -690 384 -968
69 -93 233 -263 327 -341 273 -223 633 -380 971 -423 l98 -12 5 -474 c3 -261
9 -485 14 -497 6 -18 0 -28 -36 -60 -142 -125 -168 -155 -168 -192 0 -92 9
-108 84 -167 l71 -57 -3 -490 -3 -489 25 -38 c62 -94 189 -93 260 3 20 27 21
43 26 355 l5 327 46 -60 c71 -93 180 -259 249 -379 117 -203 148 -281 236
-599 l83 -298 -61 -77 c-64 -81 -105 -158 -115 -215 -4 -30 -1 -37 33 -66 22
-17 77 -51 124 -75 93 -49 170 -101 170 -116 0 -5 -46 -11 -102 -12 l-102 -3
-19 -33 c-16 -26 -22 -69 -32 -206 -10 -151 -15 -179 -36 -217 -22 -39 -32
-47 -89 -66 -119 -40 -164 -116 -331 -557 -105 -277 -146 -362 -202 -421 -50
-52 -52 -56 -62 -126 -3 -28 -19 -67 -38 -95 -27 -41 -32 -59 -36 -122 -2 -47
1 -78 8 -85 8 -8 75 -15 184 -19 298 -12 375 -21 435 -52 30 -15 74 -48 100
-73 32 -32 65 -53 110 -70 99 -35 190 -90 261 -155 49 -46 68 -58 85 -54 11 4
40 9 64 12 36 6 42 4 42 -11 0 -33 -90 -980 -94 -991 -3 -6 -17 -15 -32 -18
-56 -14 -358 -139 -634 -261 -157 -70 -286 -128 -288 -130 -2 -2 -12 -42 -22
-89 -20 -90 -86 -295 -99 -309 -10 -10 -24 592 -15 655 5 37 2 59 -15 97 -11
27 -21 64 -21 81 0 32 -130 310 -177 379 -14 20 -29 46 -33 57 -18 47 -150
232 -194 272 -41 37 -51 42 -95 42 -37 0 -50 4 -54 18 -4 9 -16 30 -29 45 -20
25 -23 44 -31 180 -4 84 -9 222 -11 307 -3 128 -7 165 -25 215 -19 53 -22 88
-28 313 -6 236 -5 253 12 266 12 9 15 15 7 20 -7 4 -12 15 -12 24 0 36 -58
138 -93 165 -20 15 -40 27 -46 27 -6 0 -11 6 -11 13 0 8 -11 19 -25 25 -18 8
-25 8 -25 1 0 -14 -51 -5 -93 16 -17 8 -38 15 -48 15 -13 0 -19 11 -25 45 -3
25 -10 48 -15 51 -5 3 -9 13 -9 23 0 24 -104 123 -158 150 -23 12 -42 18 -42
13 0 -8 -67 -30 -274 -92 -37 -11 -80 -20 -94 -20 -18 0 -41 -16 -77 -52 -84
-88 -99 -138 -69 -233 13 -42 16 -120 17 -470 1 -231 -1 -478 -6 -550 -15
-269 -28 -502 -30 -570 l-2 -70 -40 -6 c-22 -3 -58 -13 -80 -23 -22 -10 -65
-25 -95 -35 -30 -10 -87 -38 -125 -62 -135 -87 -150 -95 -124 -62 8 10 -12 -4
-43 -30 -45 -39 -58 -56 -63 -87 -4 -22 -4 -43 -1 -49 3 -5 -1 -26 -10 -47
-10 -24 -17 -71 -18 -121 -1 -60 -5 -83 -14 -83 -7 0 -17 -11 -24 -25 -7 -15
-38 -38 -84 -61 -40 -21 -92 -54 -115 -74 -45 -38 -46 -42 -37 -190 1 -19 -2
-44 -7 -54 -7 -16 -5 -18 7 -13 21 8 46 -55 95 -238 37 -142 54 -285 34 -285
-6 0 -11 -4 -11 -10 0 -5 7 -10 15 -10 18 0 19 -12 3 -28 -8 -8 -8 -15 -1 -24
6 -7 13 -38 17 -68 7 -65 55 -197 90 -251 14 -21 26 -47 26 -58 0 -10 18 -41
40 -67 22 -27 45 -64 51 -84 12 -38 70 -139 103 -181 24 -30 42 -62 99 -169
21 -41 70 -109 108 -152 l69 -76 0 -459 c0 -252 -3 -468 -6 -479 -3 -13 -16
-24 -32 -27 -36 -7 -104 -67 -142 -125 -17 -26 -47 -69 -66 -97 -52 -74 -94
-163 -166 -358 l-14 -38 -441 588 c-495 661 -600 807 -823 1144 -169 254 -301
471 -425 696 -124 226 -184 286 -440 437 -88 52 -199 120 -246 150 -89 58
-224 187 -217 208 3 8 18 12 39 10 19 -1 95 -7 169 -12 547 -40 908 29 1009
193 21 35 51 150 51 198 0 60 -80 165 -139 184 -12 3 -21 10 -21 14 0 13 110
590 141 739 131 633 270 1102 426 1442 121 261 163 395 163 514 0 41 5 57 21
72 12 10 44 45 71 77 49 56 51 60 65 155 16 115 29 134 149 232 121 99 200
183 219 235 48 125 -27 390 -172 606 -62 94 -178 203 -250 236 -67 31 -162 41
-216 23 -36 -11 -36 -11 -99 52 -85 86 -160 142 -357 265 -150 95 -170 104
-203 100 -59 -8 -140 -50 -235 -123 -92 -70 -153 -103 -190 -104 -13 0 -112
29 -221 65 -110 36 -202 65 -204 65 -3 0 -46 -32 -94 -70 -106 -84 -217 -192
-245 -237 l-20 -32 41 -188 c23 -103 42 -195 43 -204 1 -13 -304 -549 -521
-914 -87 -146 -206 -321 -286 -421 -149 -186 -376 -370 -571 -464 -46 -23 -88
-46 -93 -53 -14 -17 -94 -286 -142 -477 -113 -452 -209 -1020 -257 -1520 -26
-271 -23 -729 5 -930 11 -85 28 -243 37 -350 26 -318 50 -440 100 -515 l25
-35 -57 -103 c-31 -56 -126 -225 -210 -376 -416 -737 -571 -1052 -696 -1418
-31 -89 -70 -217 -86 -285 -17 -68 -76 -250 -131 -406 -55 -156 -100 -296
-100 -312 0 -46 47 -255 89 -402 22 -73 83 -259 137 -413 163 -469 231 -705
259 -894 8 -53 21 -206 30 -341 18 -281 36 -416 71 -536 30 -107 49 -143 194
-384 64 -107 174 -290 243 -406 238 -402 365 -579 559 -783 71 -75 143 -153
160 -173 l30 -38 -1367 0 -1367 0 6 1473 c4 809 11 2460 16 3667 25 5537 31
6552 41 6700 78 1162 421 2455 959 3610 647 1391 1606 2622 2795 3591 893 728
1915 1319 3100 1794 434 174 762 288 1297 449 120 36 259 82 310 102 140 54
382 175 483 243 50 32 95 58 101 56 6 -2 53 -31 105 -65z m-304 -2407 c-4
-153 -7 -486 -7 -740 l0 -463 -740 0 -740 0 0 31 c0 17 9 77 21 132 117 581
541 1058 1104 1242 99 33 282 72 344 74 l24 1 -6 -277z m468 251 c690 -129
1234 -716 1318 -1422 l5 -42 -741 2 -742 3 1 205 c0 113 1 447 2 743 l2 538
38 -6 c20 -3 73 -13 117 -21z m-711 -1774 l238 0 -3 -734 c-2 -404 -8 -738
-12 -742 -4 -4 -61 2 -127 14 -635 117 -1143 592 -1300 1216 -16 61 -32 145
-36 185 l-7 74 504 -6 c277 -4 611 -7 743 -7z m2026 -36 c0 -53 -36 -220 -70
-324 -174 -534 -629 -951 -1181 -1085 -53 -13 -126 -26 -163 -30 l-66 -7 0
741 0 741 740 0 740 0 0 -36z m1855 -1209 c180 -51 366 -161 546 -322 817
-733 1120 -1028 1472 -1437 100 -117 139 -154 226 -216 226 -159 607 -585 794
-888 82 -133 164 -301 204 -421 35 -104 36 -112 64 -481 32 -434 29 -399 62
-560 37 -174 60 -342 102 -725 42 -384 53 -463 101 -680 20 -88 53 -279 75
-425 66 -438 108 -617 176 -757 l37 -75 -18 -91 c-26 -138 -121 -411 -246
-707 -229 -544 -297 -730 -344 -940 -39 -176 -49 -280 -43 -428 l5 -132 -26
19 c-97 69 -233 243 -485 621 -93 140 -187 277 -209 305 l-40 50 63 12 c35 7
66 10 70 6 9 -11 29 -97 29 -127 0 -24 3 -26 44 -26 32 0 46 5 51 18 4 9 9 76
12 147 4 99 1 146 -11 198 -17 71 -62 171 -103 225 -27 36 -24 36 -203 1 -215
-44 -421 -117 -755 -269 -99 -45 -277 -122 -395 -172 -597 -250 -974 -457
-2020 -1110 -778 -485 -990 -603 -1439 -803 -482 -213 -829 -330 -1023 -342
-80 -5 -91 -4 -142 21 -73 36 -109 80 -166 201 -26 56 -62 118 -80 138 -31 35
-34 37 -51 21 -30 -27 -44 -112 -30 -183 9 -47 9 -70 0 -101 -19 -63 1 -112
74 -185 152 -151 341 -215 593 -202 294 16 512 94 1169 416 615 302 1087 571
2160 1231 281 173 544 331 585 351 107 52 267 114 568 218 214 74 287 95 392
111 71 11 137 20 147 20 36 0 358 -325 570 -575 675 -798 1272 -1839 1649
-2878 70 -191 85 -254 134 -537 52 -301 66 -359 151 -619 223 -684 295 -1057
306 -1571 6 -287 -1 -439 -39 -835 -16 -168 -21 -304 -23 -578 -1 -197 -4
-360 -7 -362 -3 -3 -257 -4 -566 -3 l-560 3 85 150 c170 298 393 747 497 1000
40 99 41 101 40 225 -1 106 -5 139 -28 215 -37 122 -94 249 -150 333 -45 68
-126 152 -146 152 -13 0 -30 -43 -30 -78 0 -15 14 -83 30 -152 36 -152 37
-171 5 -368 -94 -584 -171 -757 -574 -1300 l-135 -182 -289 0 c-228 0 -287 3
-281 13 4 6 96 136 205 289 356 497 485 699 614 963 141 287 197 497 197 735
0 288 -79 556 -206 697 -51 57 -110 98 -126 88 -15 -9 -12 -112 10 -295 33
-277 39 -244 -111 -682 -90 -263 -147 -413 -181 -478 -206 -390 -602 -957
-840 -1202 l-123 -126 -3271 -5 -3272 -5 -112 322 c-294 843 -353 1016 -370
1081 -21 82 -43 307 -66 675 -13 209 -20 272 -34 300 -96 192 -118 570 -88
1547 l12 402 40 5 c23 3 82 8 131 10 50 3 278 17 508 31 l419 26 139 69 c1035
519 2648 1016 4034 1244 402 66 524 70 779 26 116 -20 429 -94 449 -107 6 -3
51 -5 100 -4 141 3 337 -56 550 -166 284 -147 410 -304 635 -795 40 -86 42
-88 75 -88 59 0 61 10 32 191 -93 597 -224 1008 -403 1259 -69 97 -128 156
-180 180 -218 103 -1048 181 -1606 151 -243 -13 -273 -17 -536 -74 -91 -20
-309 -64 -485 -97 -524 -100 -776 -166 -1095 -283 -376 -139 -733 -290 -1394
-592 -221 -100 -475 -215 -566 -255 -157 -69 -567 -240 -576 -240 -9 0 -3 122
11 215 31 202 126 539 241 848 29 77 44 134 44 164 0 70 33 175 135 428 51
127 149 397 218 600 69 204 149 425 177 491 164 390 371 606 700 731 36 14
124 40 195 58 l130 32 0 194 0 194 79 393 c77 384 89 424 116 396 12 -13 -14
-172 -65 -394 -78 -342 -95 -482 -75 -640 6 -52 12 -104 13 -114 2 -16 -30
-35 -174 -103 -97 -46 -248 -112 -334 -146 l-157 -63 -31 -70 c-90 -203 -9
-390 198 -453 132 -40 305 -35 535 15 298 66 643 216 756 330 41 41 58 71 183
336 23 49 55 103 71 122 25 28 30 42 30 87 0 70 26 177 95 389 90 279 95 305
105 565 8 218 10 235 40 330 162 514 362 1448 376 1760 6 113 3 138 -47 425
-51 296 -53 313 -59 560 -7 252 -7 256 -40 355 -83 257 -226 573 -342 760
-161 257 -358 469 -658 706 -58 46 -160 127 -226 180 -275 219 -391 274 -567
267 -79 -3 -102 -8 -161 -36 -130 -61 -175 -140 -196 -337 -16 -152 1 -351 64
-755 64 -402 72 -519 27 -385 -79 235 -211 526 -326 715 -140 230 -284 422
-362 483 -80 62 -108 94 -133 150 l-21 47 33 47 c111 162 373 376 722 590 373
228 811 449 1586 798 162 73 373 171 468 218 359 177 491 204 707 142z m-1670
-2823 c70 -35 183 -152 239 -247 205 -352 299 -969 282 -1850 -4 -198 -11
-391 -14 -430 l-7 -69 -59 -48 c-62 -50 -185 -115 -270 -143 -200 -65 -435
-62 -559 8 -33 18 -44 33 -63 86 -29 78 -30 110 -3 192 33 100 71 167 169 298
114 152 140 205 140 288 0 116 -55 218 -209 390 l-88 98 29 86 c23 69 27 91
18 113 -9 24 -15 27 -47 24 -36 -3 -39 -6 -58 -60 -11 -31 -23 -59 -26 -63
-13 -12 -117 37 -179 85 -36 28 -92 69 -124 91 -33 22 -61 41 -63 43 -2 2 7
28 20 57 79 178 478 741 731 1031 56 64 54 64 141 20z m-5744 -146 c27 -25 95
-73 151 -107 164 -101 261 -187 315 -280 10 -16 23 -29 30 -29 8 0 50 18 94
41 l81 40 39 -27 c60 -41 118 -110 147 -172 23 -50 27 -73 30 -191 l4 -134 54
6 c59 6 65 -2 44 -57 -11 -30 -100 -146 -111 -146 -5 0 -13 9 -19 20 -9 17
-21 20 -75 20 -47 0 -110 13 -239 51 -97 28 -186 49 -199 47 -35 -5 -82 -147
-134 -403 -31 -154 -52 -238 -73 -280 -37 -77 -159 -205 -195 -205 -14 0 -25
4 -25 9 0 5 32 39 72 75 l71 67 -12 39 c-7 23 -26 51 -47 68 -34 28 -36 32
-29 73 6 35 17 54 56 90 l48 46 -17 49 c-13 40 -17 90 -17 267 l0 217 -95 43
c-115 52 -167 84 -242 148 -56 49 -57 49 -127 49 -49 0 -72 4 -78 14 -12 21
-68 46 -103 46 -16 0 -74 -6 -128 -14 -178 -27 -164 -29 -177 34 -13 63 -26
91 -96 197 -27 42 -48 83 -47 91 2 8 29 33 61 56 54 38 63 41 120 40 40 -1 86
-10 129 -27 94 -36 177 -51 242 -43 54 7 66 13 237 120 68 42 180 95 203 96 4
0 30 -20 57 -44z m-605 -743 c30 -25 51 -49 47 -53 -4 -4 -64 -31 -132 -61
-111 -48 -128 -58 -163 -103 -45 -57 -81 -125 -134 -252 -33 -81 -66 -148
-112 -229 -9 -16 -17 -31 -17 -32 0 -1 -34 2 -75 7 -74 8 -76 8 -179 -36 -57
-24 -105 -43 -106 -42 -2 2 95 186 214 410 212 400 217 408 247 408 17 0 51
-13 77 -30 26 -16 50 -30 53 -30 2 0 29 16 59 36 35 24 72 39 107 44 29 4 55
8 56 9 2 0 28 -20 58 -46z m439 -174 c30 -36 69 -109 62 -116 -3 -2 -28 29
-56 71 -52 76 -55 103 -6 45z m-344 -206 c87 -32 148 -87 174 -155 l17 -46
-94 -94 c-113 -112 -172 -199 -307 -456 -114 -219 -162 -292 -240 -375 -72
-76 -81 -80 -125 -62 -19 8 -52 15 -72 15 l-37 0 7 52 c11 78 71 256 136 403
103 232 206 439 241 485 56 74 69 97 83 152 12 50 16 55 67 80 30 15 59 27 66
27 6 1 44 -11 84 -26z m1168 -66 c8 -11 -10 -66 -75 -233 -153 -390 -197 -526
-239 -738 l-22 -111 -114 3 c-63 2 -121 5 -130 8 -11 3 -16 17 -17 49 -1 102
-61 146 -212 153 l-98 5 -49 -46 c-69 -65 -122 -87 -210 -87 -52 0 -76 4 -87
16 -9 8 -16 18 -16 21 0 10 114 200 157 260 53 75 136 153 194 181 24 12 45
20 47 17 2 -2 -8 -19 -22 -37 -41 -54 -56 -102 -56 -176 0 -55 4 -75 21 -96
18 -23 27 -26 84 -26 152 0 280 54 391 165 124 124 200 309 226 552 l12 111
66 10 c96 14 136 14 149 -1z m4213 -479 c8 -27 22 -47 40 -57 32 -18 58 -66
58 -108 0 -145 -176 -449 -411 -710 -81 -89 -194 -187 -208 -179 -24 15 -34
68 -22 120 25 113 181 387 287 505 l48 53 -13 46 c-6 26 -25 69 -42 96 l-30
49 27 61 c37 84 40 87 71 73 24 -11 29 -8 72 40 37 41 52 52 78 52 29 1 33 -3
45 -41z m-6242 -449 c-50 -143 -90 -264 -90 -268 0 -5 18 -28 39 -53 96 -109
282 -155 458 -113 34 8 69 12 77 9 21 -8 60 -71 80 -129 52 -153 36 -472 -36
-703 -28 -93 -68 -168 -231 -441 -279 -469 -377 -688 -407 -915 -15 -113 -1
-208 44 -301 19 -38 33 -71 31 -74 -2 -2 -123 -23 -267 -47 -285 -47 -336 -62
-472 -142 -210 -125 -388 -310 -497 -516 l-48 -91 -20 46 c-48 107 -71 369
-71 805 0 353 9 516 40 709 11 66 38 266 60 445 89 711 155 1037 252 1239 68
142 248 311 500 467 169 105 593 333 620 333 l27 1 -89 -261z m3860 -179 c0
-41 5 -104 10 -140 22 -158 45 -1052 29 -1110 -4 -14 -9 -109 -12 -213 l-4
-187 34 -40 c31 -36 39 -40 83 -40 57 0 125 27 159 64 24 25 24 32 31 248 6
194 6 397 -3 1073 -1 83 -6 156 -10 163 -5 6 -6 12 -3 12 2 0 11 3 19 6 26 10
53 -64 82 -226 7 -41 18 -95 24 -120 5 -25 10 -75 11 -113 0 -37 7 -110 15
-163 14 -83 21 -226 24 -494 0 -36 -1 -129 -4 -208 -4 -97 -2 -150 6 -164 10
-19 8 -25 -17 -45 -16 -13 -45 -28 -64 -34 -19 -7 -46 -20 -60 -31 -25 -19
-96 -65 -260 -170 -47 -30 -128 -78 -180 -108 -52 -29 -107 -62 -122 -72 -25
-18 -28 -18 -28 -3 0 10 11 30 23 45 23 27 24 33 31 321 3 162 12 375 19 474
14 214 13 1178 -2 1275 l-10 65 32 28 c17 15 38 27 47 27 9 0 25 6 35 14 18
13 21 11 42 -23 18 -29 22 -51 23 -111z m-2634 32 c21 -13 56 -127 61 -197 5
-70 5 -70 -25 -88 -17 -10 -63 -47 -103 -83 -78 -72 -117 -94 -156 -86 -25 5
-25 7 -20 68 8 106 82 241 156 286 53 32 55 38 34 96 -6 13 34 17 53 4z m-302
-158 c7 -18 -13 -45 -56 -76 -38 -27 -37 -4 3 50 34 46 44 51 53 26z m636
-173 c0 -89 -81 -413 -176 -703 -60 -183 -67 -199 -95 -214 -47 -24 -197 -34
-369 -26 l-155 7 3 25 c2 14 23 68 47 120 65 144 79 199 71 292 l-6 78 44 -22
45 -21 98 94 c138 132 460 397 486 399 4 0 7 -13 7 -29z m6010 -590 c0 -22
-33 -184 -52 -251 -11 -41 -51 -172 -88 -290 -130 -411 -152 -519 -148 -714 2
-95 -1 -131 -10 -134 -9 -3 -12 50 -12 225 0 442 -38 745 -115 920 -14 30 -25
61 -25 68 0 20 89 62 205 96 61 17 137 44 170 60 67 31 75 33 75 20z m-6831
-543 c30 -8 126 -12 273 -11 l227 2 -5 -32 c-17 -98 -30 -160 -70 -327 -54
-222 -74 -334 -74 -406 0 -52 1 -53 58 -100 31 -25 58 -50 60 -54 5 -14 -72
-73 -133 -101 -89 -42 -167 -59 -295 -66 -125 -6 -267 6 -420 37 -143 30 -170
39 -170 58 0 16 24 17 298 17 253 1 317 4 434 22 144 23 178 34 178 59 0 56
-73 137 -137 151 -21 4 -95 8 -165 8 -71 0 -128 1 -128 3 0 1 11 28 24 60 65
158 61 214 -34 413 -38 81 -70 152 -70 157 0 5 9 17 19 26 17 16 28 37 45 90
4 12 12 16 23 12 9 -4 37 -12 62 -18z m-277 -365 c21 -19 22 -48 4 -127 -12
-50 -23 -67 -77 -122 -61 -61 -94 -83 -107 -70 -5 6 148 335 157 336 3 0 13
-7 23 -17z m4185 5 c6 -7 32 -53 58 -103 26 -49 55 -101 64 -115 15 -23 30
-53 60 -120 6 -14 20 -38 30 -55 11 -16 20 -36 20 -43 1 -8 10 -25 21 -39 11
-14 20 -33 20 -43 0 -10 8 -28 18 -41 17 -22 18 -33 10 -114 -6 -49 -7 -142
-4 -205 3 -63 7 -234 10 -379 5 -222 3 -272 -10 -310 -8 -25 -19 -50 -23 -56
-5 -5 -27 -51 -49 -102 -22 -50 -61 -126 -87 -169 -26 -43 -58 -96 -70 -118
-13 -23 -44 -72 -69 -111 -25 -38 -46 -78 -46 -90 0 -12 -4 -25 -9 -31 -19
-22 -34 -184 -27 -306 17 -295 22 -320 66 -351 l21 -14 -21 -94 c-66 -295
-107 -434 -208 -699 -38 -102 -80 -217 -93 -257 l-23 -72 -45 5 c-25 3 -68 12
-96 21 -27 9 -59 17 -70 18 -18 3 -99 26 -244 70 -30 9 -64 23 -76 31 -11 7
-59 28 -105 45 -47 17 -97 35 -112 41 -38 13 -42 54 -33 306 4 114 7 339 5
501 l-2 294 73 -7 c98 -8 146 4 187 48 46 51 45 102 -2 150 -36 36 -61 46
-161 66 -121 24 -218 88 -278 185 -24 39 -58 90 -76 115 -85 119 -102 150
-115 200 -14 52 -13 54 9 72 34 26 75 118 75 167 0 53 -12 77 -50 96 -49 26
-88 19 -126 -20 l-33 -35 -24 22 c-41 37 -77 114 -77 163 0 24 -9 83 -21 131
-11 48 -18 97 -15 109 4 14 -6 41 -29 80 -22 37 -35 70 -35 94 -1 40 -20 124
-44 190 -26 70 -21 102 19 141 19 18 36 32 38 29 11 -13 61 -175 77 -249 7
-30 16 -63 22 -73 5 -10 17 -55 27 -100 20 -88 36 -131 91 -242 34 -68 64 -98
146 -147 16 -10 42 -27 57 -40 42 -34 167 -39 208 -9 15 11 32 21 37 21 17 0
90 86 102 121 19 54 6 106 -33 129 -34 21 -100 26 -140 11 -32 -12 -95 9 -120
40 -28 34 -63 109 -72 149 -11 55 -45 173 -56 192 -5 10 -9 30 -9 45 0 16 -7
41 -15 57 -8 15 -15 36 -15 45 0 9 -8 32 -18 51 -10 19 -26 69 -36 110 -9 41
-20 82 -23 90 -15 38 -17 49 -17 111 0 46 5 74 17 92 9 14 17 38 17 52 0 21 9
29 54 49 29 13 57 29 60 35 4 6 18 11 30 11 17 0 27 -9 35 -30 6 -16 16 -44
22 -60 14 -36 63 -80 89 -80 10 0 21 -9 25 -19 9 -28 82 -91 105 -91 17 0 20
-7 20 -45 0 -44 -1 -44 -24 -34 -38 18 -91 3 -121 -33 -24 -28 -26 -38 -22
-92 4 -59 31 -171 46 -191 16 -21 40 -135 51 -240 11 -109 12 -110 50 -149 35
-36 45 -40 100 -44 60 -4 60 -4 105 40 57 57 57 69 17 300 -5 26 -13 53 -19
60 -6 7 -13 24 -16 38 -3 14 -15 51 -26 84 -24 63 -22 78 6 54 35 -30 140 -75
216 -93 65 -14 100 -16 198 -11 66 4 144 14 175 22 30 8 56 14 57 14 2 0 11
-22 22 -50 28 -72 128 -169 186 -181 88 -17 116 -12 159 27 35 32 40 42 40 79
0 25 -6 48 -15 55 -15 12 -133 187 -154 227 -6 12 -11 41 -11 64 0 24 -9 62
-21 85 -26 56 -72 84 -134 84 -46 0 -51 -3 -106 -59 -54 -56 -60 -59 -130 -72
-100 -19 -235 -18 -276 1 -18 8 -33 18 -33 21 0 4 20 16 44 28 25 11 47 25 51
31 3 5 13 10 21 10 17 0 153 79 261 151 40 27 75 49 78 49 3 0 24 14 48 31 23
17 56 37 72 44 17 7 68 42 115 78 47 37 88 66 91 67 4 0 11 -6 16 -12z m-4320
-1467 c115 -102 318 -312 417 -429 116 -139 251 -319 496 -662 297 -416 431
-592 820 -1070 464 -570 654 -813 840 -1073 l113 -158 -15 -37 c-9 -20 -134
-289 -278 -597 l-263 -560 -125 -430 c-68 -236 -142 -495 -163 -574 -72 -270
-96 -488 -66 -577 8 -22 17 -79 21 -129 9 -128 18 -153 114 -323 87 -153 107
-174 147 -158 23 9 19 66 -21 268 -31 151 -37 206 -38 313 0 127 2 138 73 450
125 551 203 835 308 1124 80 222 124 312 267 553 128 216 166 267 166 222 0
-8 -36 -216 -80 -462 l-80 -447 -35 -465 c-19 -256 -39 -485 -44 -510 -30
-145 -65 -656 -59 -870 4 -153 5 -156 40 -230 19 -41 72 -167 118 -280 45
-113 87 -211 92 -218 6 -6 23 -12 38 -12 52 0 54 15 21 177 -62 305 -87 632
-77 1010 12 465 61 903 157 1413 34 180 44 210 53 170 4 -14 40 -260 81 -547
74 -514 75 -525 75 -727 l0 -205 70 -383 c39 -211 75 -390 80 -400 5 -9 28
-80 50 -159 23 -78 61 -181 84 -228 73 -145 266 -644 266 -686 0 -13 -280 -15
-2359 -15 l-2360 0 -20 29 c-12 16 -73 92 -137 168 -151 179 -187 231 -282
399 -43 76 -153 267 -244 424 -251 432 -342 604 -450 850 l-59 135 -51 405
c-46 375 -49 416 -44 552 l6 147 -50 179 c-167 603 -277 1116 -287 1337 l-5
120 47 135 c160 463 364 898 716 1526 61 110 200 360 310 556 212 381 280 497
355 599 100 135 217 237 294 255 19 4 145 8 280 8 l245 1 72 47 c40 26 87 55
105 64 39 21 136 53 160 53 10 1 53 -30 95 -68z m3038 -2541 c3 0 57 -25 120
-55 64 -30 121 -55 127 -55 7 0 30 -9 52 -19 23 -10 77 -30 121 -44 44 -14
103 -35 130 -47 84 -37 202 -71 288 -85 31 -5 37 -9 32 -23 -4 -9 -8 -73 -10
-142 l-2 -125 -58 -30 c-57 -29 -63 -30 -189 -29 -123 1 -143 4 -336 52 -112
29 -217 52 -233 52 -20 0 -45 -14 -80 -45 -29 -25 -57 -45 -64 -45 -6 0 -55
43 -108 96 -70 70 -95 100 -90 112 4 9 9 39 12 65 3 26 10 50 14 53 5 3 9 22
9 42 0 20 7 50 15 66 8 15 15 37 15 48 0 11 8 32 19 46 10 15 21 40 25 57 4
16 21 52 38 81 l31 51 58 -38 c32 -22 61 -39 64 -39z"/>
<path d="M10151 10549 c-16 -13 -18 -19 -8 -19 15 0 43 27 36 34 -2 3 -15 -4
-28 -15z"/>
<path d="M9656 9591 c-4 -7 -5 -15 -2 -18 9 -9 19 4 14 18 -4 11 -6 11 -12 0z"/>
<path d="M9750 9246 c0 -9 5 -16 10 -16 6 0 10 4 10 9 0 6 -4 13 -10 16 -5 3
-10 -1 -10 -9z"/>
<path d="M9765 9180 c-3 -5 -1 -10 4 -10 6 0 11 5 11 10 0 6 -2 10 -4 10 -3 0
-8 -4 -11 -10z"/>
<path d="M17665 10511 c-197 -54 -343 -99 -380 -118 -69 -36 -191 -114 -390
-253 -270 -188 -417 -257 -1115 -522 -401 -152 -585 -230 -783 -331 -202 -103
-227 -126 -193 -172 13 -18 20 -18 141 -6 353 34 741 134 1135 291 380 152
701 313 950 477 212 139 376 227 485 261 182 57 412 87 600 79 265 -11 439
-76 561 -210 91 -99 124 -194 124 -354 0 -116 -17 -211 -61 -333 -45 -125 -45
-128 -16 -141 17 -8 38 -8 63 -2 33 7 42 16 66 63 15 30 57 89 94 130 97 111
108 137 107 245 -2 168 -73 420 -164 580 -56 100 -171 219 -264 273 -140 82
-351 133 -540 131 -93 -1 -124 -8 -420 -88z"/>
<path d="M11115 9523 c-16 -2 -42 -16 -57 -31 -24 -22 -28 -34 -28 -83 0 -32
5 -61 10 -64 6 -3 10 -14 10 -23 0 -9 14 -44 30 -77 16 -33 30 -70 30 -82 0
-12 14 -38 31 -58 26 -29 38 -35 70 -35 100 0 171 150 119 249 -5 9 -19 46
-31 83 -35 105 -84 137 -184 121z"/>
</g>
</svg>
